<svg width="260" height="122" viewBox="0 0 260 122" fill="none" xmlns="http://www.w3.org/2000/svg">
<g clip-path="url(#clip0_34_343)">
<path fill-rule="evenodd" clip-rule="evenodd" d="M42.25 74.0707C42.1716 74.5731 41.9805 75.0513 41.691 75.4694C41.4015 75.8875 41.0212 76.2347 40.5786 76.485C39.6871 77.0607 38.9071 77.3486 38.1179 77.6364C36.4371 78.2168 34.6682 78.7971 32.7971 79.4703C30.8239 80.1435 29.055 80.8168 27.4764 81.3043C25.5079 81.9775 23.6368 82.5578 21.8586 83.2311C20.5207 83.8035 19.2641 84.5497 18.1211 85.4503C17.058 86.4134 16.1303 87.5161 15.3632 88.7282C14.5739 90.0746 14.0771 91.811 14.0771 93.8353C14.0771 97.8885 15.0614 100.971 17.0346 102.898C19.0032 104.927 22.6525 105.888 28.0614 105.888C33.5771 105.888 37.3193 104.83 39.2971 102.708C41.2611 100.586 42.2454 97.6007 42.2454 93.7471V74.0707H42.25ZM28.0661 31.3564C37.7232 31.3564 44.8129 33.1903 49.3396 36.9511C53.8711 40.6189 56.1368 45.3361 56.1368 50.9261V98.5618C56.1368 100.489 55.7468 102.61 55.0596 104.922C54.3632 107.244 52.9889 109.361 50.8207 111.283C48.7546 113.219 45.8993 114.858 42.2546 116.112C38.61 117.365 33.8836 118.039 28.0707 118.039C22.2671 118.039 17.5314 117.365 13.8914 116.112C10.2514 114.858 7.39143 113.219 5.32536 111.283C3.40336 109.551 1.94735 107.364 1.09107 104.922C0.394643 102.615 0 100.493 0 98.5664V90.9521C0 86.8989 1.08179 83.1382 3.25 79.8557C5.41821 76.485 8.46857 74.1728 12.4104 72.7243C14.3789 72.0511 16.6446 71.3778 19.2029 70.5096C21.7657 69.6368 24.1243 68.7686 26.4921 68.0025C28.86 67.2271 30.9261 66.4518 32.695 65.7739C33.7625 65.3468 34.8467 64.9627 35.945 64.6225L37.7186 63.7543C38.415 63.3689 39.0975 62.7886 39.7893 62.0178C40.4764 61.2518 41.0661 60.3836 41.5629 59.4178C42.0877 58.3721 42.3582 57.2172 42.3521 56.0471V52.9596C42.3594 51.828 42.1218 50.7083 41.6557 49.6771C41.2657 48.5164 40.4764 47.4578 39.3946 46.4968C38.3129 45.5311 36.8318 44.7603 35.0629 44.1753C33.2893 43.6043 30.9307 43.3118 28.2657 43.3118C22.75 43.3118 19.1054 44.3796 17.1368 46.5896C15.4654 48.5211 14.4811 50.9307 14.2861 53.6282C14.2861 54.2086 13.7939 54.5939 13.1996 54.5939L1.18857 54.7889C0.903258 54.7902 0.629004 54.6786 0.425524 54.4786C0.222043 54.2786 0.105814 54.0063 0.102143 53.721V50.9353C0.102143 48.2286 0.598929 45.7214 1.68071 43.3118C2.76714 40.8975 4.44321 38.8778 6.70429 37.1368C8.97 35.405 11.9275 33.9611 15.47 32.9953C18.9196 31.8346 23.1539 31.3564 28.0754 31.3564H28.0661ZM245.816 74.0707C245.738 74.5731 245.547 75.0513 245.257 75.4694C244.968 75.8875 244.587 76.2347 244.145 76.485C243.263 77.0607 242.473 77.3486 241.684 77.6364C240.013 78.2168 238.234 78.7971 236.363 79.4703C234.39 80.1435 232.616 80.8168 231.043 81.3043C229.069 81.9775 227.198 82.5578 225.425 83.2311C224.085 83.8032 222.827 84.5494 221.683 85.4503C220.621 86.4137 219.695 87.5164 218.929 88.7282C218.14 90.0746 217.648 91.811 217.648 93.8353C217.648 97.8885 218.623 100.971 220.596 102.898C222.565 104.927 226.214 105.888 231.628 105.888C237.153 105.888 240.89 104.83 242.863 102.708C244.827 100.586 245.811 97.6007 245.811 93.7471L245.816 74.0707ZM231.637 31.3564C241.294 31.3564 248.384 33.1903 252.915 36.9511C257.442 40.6189 259.708 45.3361 259.708 50.9261V98.5618C259.708 100.489 259.318 102.61 258.626 104.922C257.939 107.244 256.56 109.361 254.391 111.283C252.325 113.219 249.47 114.858 245.825 116.112C242.185 117.365 237.454 118.039 231.646 118.039C225.843 118.039 221.107 117.365 217.467 116.112C213.827 114.858 210.967 113.219 208.901 111.283C206.982 109.55 205.529 107.363 204.676 104.922C203.979 102.61 203.585 100.489 203.585 98.5618V90.9475C203.585 86.8943 204.671 83.1336 206.835 79.8511C209.003 76.4803 212.058 74.1682 215.995 72.7196C217.964 72.0464 220.229 71.3732 222.792 70.505C225.346 69.6321 227.714 68.7639 230.081 67.9978C232.449 67.2225 234.511 66.4471 236.284 65.7693C237.352 65.3422 238.436 64.958 239.534 64.6178L241.308 63.7496C241.995 63.3643 242.687 62.7839 243.374 62.0132C244.079 61.2297 244.675 60.3552 245.148 59.4132C245.672 58.3675 245.943 57.2125 245.937 56.0425V52.955C245.944 51.8234 245.707 50.7036 245.24 49.6725C244.85 48.5118 244.066 47.4532 242.979 46.4921C241.898 45.5264 240.426 44.7557 238.648 44.1707C236.874 43.5996 234.515 43.3071 231.85 43.3071C226.335 43.3071 222.695 44.375 220.721 46.585C219.05 48.5164 218.066 50.926 217.866 53.6235C217.866 54.2039 217.379 54.5893 216.789 54.5893H204.843C204.561 54.5881 204.29 54.4768 204.089 54.2791C203.888 54.0813 203.772 53.8128 203.766 53.5307V50.731C203.766 48.0382 204.258 45.5311 205.344 43.1168C206.426 40.7118 208.098 38.6828 210.359 36.9511C212.634 35.2146 215.582 33.7661 219.134 32.805C222.476 31.83 226.711 31.3564 231.637 31.3564ZM189.387 31.7418H197.27C197.958 31.7418 198.45 32.4196 198.255 33.0882L195.594 43.1168C195.501 43.6043 195.005 43.8921 194.61 43.8921H189.094C186.141 43.8921 183.778 44.2775 181.907 45.0528C180.129 45.8189 178.657 46.6871 177.668 47.7457C176.684 48.8136 176.09 49.8675 175.797 50.9307C175.532 51.9699 175.399 53.0385 175.403 54.1111V116.112C175.396 116.396 175.278 116.667 175.074 116.865C174.87 117.063 174.596 117.173 174.311 117.17H162.5C162.217 117.17 161.945 117.06 161.743 116.862C161.541 116.664 161.424 116.395 161.418 116.112V51.3114C161.418 50.16 161.613 48.4236 162.105 46.2043C162.5 43.9896 163.684 41.8678 165.555 39.6485C167.426 37.5268 170.184 35.6 173.926 34.0586C177.673 32.5078 182.794 31.7418 189.387 31.7418ZM149.598 96.44V99.3325C149.598 100.586 149.412 102.322 148.915 104.542C148.52 106.659 147.336 108.878 145.465 110.995C143.594 113.122 140.836 115.049 137.094 116.59C133.352 118.136 128.226 118.911 121.634 118.911C115.041 118.911 109.915 118.136 106.173 116.59C102.431 115.049 99.6729 113.219 97.8018 111C95.9307 108.883 94.7468 106.664 94.3522 104.454C93.9622 102.225 93.6696 100.591 93.6696 99.3371V34.4439C93.6696 33.8636 94.1618 33.3761 94.7514 33.3761H106.47C107.064 33.3761 107.556 33.8636 107.556 34.4439V95.1864C107.556 97.2107 107.849 98.6593 108.146 99.8153C108.448 100.976 109.038 102.127 109.924 103.093C110.806 104.152 112.19 105.02 114.056 105.693C115.83 106.371 118.295 106.761 121.346 106.761C124.503 106.761 127.056 106.371 128.932 105.693C130.803 105.02 132.182 104.152 133.166 103.186C134.141 102.225 134.838 101.166 135.13 100.006C135.428 98.845 135.827 97.8886 135.827 95.0843V34.351C135.827 33.7753 136.314 33.2925 136.904 33.2925H148.623C149.208 33.2925 149.7 33.7753 149.7 34.3603V96.4493H149.607L149.598 96.44ZM68.9464 0.797123H80.6696C81.2593 0.797123 81.7514 1.27534 81.7514 1.85105V116.687C81.7478 116.972 81.6322 117.244 81.4297 117.443C81.2272 117.643 80.9542 117.755 80.6696 117.755H68.9464C68.6619 117.755 68.3889 117.643 68.1864 117.443C67.9839 117.244 67.8683 116.972 67.8646 116.687V1.85105C67.9575 1.27534 68.3568 0.797123 68.9464 0.797123Z" fill="white"/>
</g>
<defs>
<clipPath id="clip0_34_343">
<rect width="260" height="121.333" fill="white"/>
</clipPath>
</defs>
</svg>
