<svg width="70" height="70" viewBox="0 0 70 70" fill="none" xmlns="http://www.w3.org/2000/svg">
<path d="M63.1094 16.7891L36.6953 1.58594C36.2578 1.3125 35.6562 1.20312 35 1.20312C34.3438 1.20312 33.7422 1.36719 33.3047 1.58594L7.05469 16.8437C6.125 17.3906 5.46875 18.7578 5.46875 19.7969V50.2578C5.46875 50.8594 5.57812 51.5703 6.01562 52.1719L64.4219 18.2656C64.0938 17.6094 63.6016 17.1172 63.1094 16.7891Z" fill="#9B4F96"/>
<path d="M5.85156 52.1172C6.125 52.5547 6.50781 52.9375 6.89063 53.1562L33.25 68.4141C33.6875 68.6875 34.2891 68.7969 34.9453 68.7969C35.6016 68.7969 36.2031 68.6328 36.6406 68.4141L62.8906 53.1562C63.8203 52.6094 64.4766 51.2422 64.4766 50.2031V19.7422C64.4766 19.25 64.4219 18.7031 64.1484 18.2109L5.85156 52.1172Z" fill="#68217A"/>
<path d="M46.6484 41.6172C44.3516 45.6641 39.9766 48.3984 35 48.3984C27.6172 48.3984 21.6016 42.3828 21.6016 35C21.6016 27.6172 27.6172 21.6016 35 21.6016C39.9766 21.6016 44.3516 24.3359 46.6484 28.4375L53.7578 24.3359C50.0391 17.8281 43.0391 13.3984 35 13.3984C23.0781 13.3984 13.3984 23.0781 13.3984 35C13.3984 46.9219 23.0781 56.6016 35 56.6016C42.9844 56.6016 49.9844 52.2266 53.7031 45.7734L46.6484 41.6172ZM53.0469 36.2031L53.5391 33.8516H51.2422V31.2812H54.0312L54.6875 27.8906H57.3672L56.7109 31.2266H58.7891L59.4453 27.8906H62.0703L61.4141 31.2266H62.7266V33.7969H60.9219L60.4297 36.1484H62.7266V38.7188H59.9375L59.2812 42H56.6016L57.2578 38.7188H55.1797L54.5234 42H51.8984L52.5547 38.7188H51.2422V36.1484H53.0469V36.2031ZM55.6719 36.2031H57.75L58.2422 33.8516H56.1641L55.6719 36.2031Z" fill="white"/>
</svg>
