<svg width="70" height="70" viewBox="0 0 70 70" fill="none" xmlns="http://www.w3.org/2000/svg">
<path d="M10.2889 62.411L4.79062 0.73938H65.2094L59.7056 62.4017L34.9634 69.2612L10.2889 62.411Z" fill="#1572B6"/>
<path d="M35.0005 64.0183L54.9938 58.4752L59.6974 5.78162H35.0005V64.0183Z" fill="#33A9DC"/>
<path d="M35.0005 28.1253H45.0095L45.7007 20.3799H35.0005V12.816H53.9673L53.7857 14.8455L51.9263 35.6891H35.0005V28.1253Z" fill="white"/>
<path d="M35.0454 47.769L35.012 47.7788L26.5885 45.5044L26.0498 39.4718H18.4581L19.5174 51.3483L35.0109 55.6484L35.0454 55.6385V47.769Z" fill="#EBEBEB"/>
<path d="M44.3663 35.3691L43.4552 45.4984L35.0191 47.7755V55.6451L50.5252 51.3477L50.639 50.0697L51.9548 35.3691H44.3663Z" fill="white"/>
<path d="M35.0263 12.816V20.3799H16.7563L16.6048 18.6802L16.2602 14.8455L16.0792 12.816H35.0263ZM35.0006 28.1264V35.6902H26.6831L26.5316 33.9905L26.1866 30.1558L26.0061 28.1264H35.0006Z" fill="#EBEBEB"/>
</svg>
