<svg width="70" height="70" viewBox="0 0 70 70" fill="none" xmlns="http://www.w3.org/2000/svg">
<path d="M17.5 61.25C15.3125 61.25 13.1493 60.7153 11.0104 59.6459C8.87152 58.5764 7.14583 57.1667 5.83333 55.4167C7.09722 55.4167 8.38541 54.9184 9.69791 53.9219C11.0104 52.9254 11.6667 51.4792 11.6667 49.5834C11.6667 47.1528 12.5174 45.0868 14.2187 43.3855C15.9201 41.6841 17.9861 40.8334 20.4167 40.8334C22.8472 40.8334 24.9132 41.6841 26.6146 43.3855C28.316 45.0868 29.1667 47.1528 29.1667 49.5834C29.1667 52.7917 28.0243 55.5382 25.7396 57.823C23.4549 60.1077 20.7083 61.25 17.5 61.25ZM17.5 55.4167C19.1042 55.4167 20.4774 54.8455 21.6198 53.7032C22.7621 52.5608 23.3333 51.1875 23.3333 49.5834C23.3333 48.757 23.0538 48.0643 22.4948 47.5052C21.9358 46.9462 21.2431 46.6667 20.4167 46.6667C19.5903 46.6667 18.8976 46.9462 18.3385 47.5052C17.7795 48.0643 17.5 48.757 17.5 49.5834C17.5 50.7014 17.3663 51.7223 17.099 52.6459C16.8316 53.5695 16.4792 54.4445 16.0417 55.2709C16.2847 55.3681 16.5278 55.4167 16.7708 55.4167H17.5ZM34.2708 43.75L26.25 35.7292L52.3542 9.62503C52.8889 9.09031 53.5573 8.8108 54.3594 8.78649C55.1615 8.76219 55.8542 9.0417 56.4375 9.62503L60.375 13.5625C60.9583 14.1459 61.25 14.8264 61.25 15.6042C61.25 16.382 60.9583 17.0625 60.375 17.6459L34.2708 43.75Z" fill="#9B37FF"/>
</svg>
