<svg width="70" height="70" viewBox="0 0 70 70" fill="none" xmlns="http://www.w3.org/2000/svg">
<path d="M11.6666 11.6666L17.5 23.3333H26.25L20.4166 11.6666H26.25L32.0833 23.3333H40.8333L35 11.6666H40.8333L46.6666 23.3333H55.4166L49.5833 11.6666H58.3333C59.9375 11.6666 61.3107 12.2378 62.4531 13.3802C63.5955 14.5225 64.1666 15.8958 64.1666 17.5V52.5C64.1666 54.1041 63.5955 55.4774 62.4531 56.6198C61.3107 57.7621 59.9375 58.3333 58.3333 58.3333H11.6666C10.0625 58.3333 8.68922 57.7621 7.54685 56.6198C6.40449 55.4774 5.83331 54.1041 5.83331 52.5V17.5C5.83331 15.8958 6.40449 14.5225 7.54685 13.3802C8.68922 12.2378 10.0625 11.6666 11.6666 11.6666ZM11.6666 29.1666V52.5H58.3333V29.1666H11.6666Z" fill="#9B37FF"/>
</svg>
