<svg width="240" height="240" viewBox="0 0 240 240" fill="none" xmlns="http://www.w3.org/2000/svg">
<path d="M218.055 100.415H210V100H120V140H176.515C168.27 163.285 146.115 180 120 180C86.865 180 60 153.135 60 120C60 86.865 86.865 60 120 60C135.295 60 149.21 65.77 159.805 75.195L188.09 46.91C170.23 30.265 146.34 20 120 20C64.775 20 20 64.775 20 120C20 175.225 64.775 220 120 220C175.225 220 220 175.225 220 120C220 113.295 219.31 106.75 218.055 100.415Z" fill="#FFC107"/>
<path d="M31.53 73.455L64.385 97.55C73.275 75.54 94.805 60 120 60C135.295 60 149.21 65.77 159.805 75.195L188.09 46.91C170.23 30.265 146.34 20 120 20C81.59 20 48.28 41.685 31.53 73.455Z" fill="#FF3D00"/>
<path d="M120 220C145.83 220 169.3 210.115 187.045 194.04L156.095 167.85C146.055 175.455 133.575 180 120 180C93.99 180 71.905 163.415 63.585 140.27L30.975 165.395C47.525 197.78 81.135 220 120 220Z" fill="#4CAF50"/>
<path d="M218.055 100.415H210V100H120V140H176.515C172.555 151.185 165.36 160.83 156.08 167.855L156.095 167.845L187.045 194.035C184.855 196.025 220 170 220 120C220 113.295 219.31 106.75 218.055 100.415Z" fill="#1976D2"/>
</svg>
