<svg width="70" height="70" viewBox="0 0 70 70" fill="none" xmlns="http://www.w3.org/2000/svg">
<path d="M10.4109 62.2759L4.93937 0.908325H65.0606L59.5831 62.2666L34.9634 69.0916L10.4109 62.2759Z" fill="#E44D26"/>
<path d="M35 63.875L54.8942 58.3592L59.5749 5.9259H35V63.875Z" fill="#F16529"/>
<path d="M35 28.6864H25.0403L24.3523 20.9787H35V13.4526H16.1268L16.3073 15.4717L18.1568 36.213H35V28.6864ZM35 48.2333L34.9666 48.2426L26.5847 45.9786L26.0493 39.9766H18.4931L19.5475 51.794L34.9655 56.0739L35 56.0646V48.2333Z" fill="#EBEBEB"/>
<path d="M34.9738 28.6864V36.213H44.2416L43.3683 45.9742L34.9738 48.2399V56.0706L50.4038 51.794L50.517 50.5226L52.2856 30.7076L52.4688 28.6864H50.441H34.9738ZM34.9738 13.4526V20.9787H53.1541L53.305 19.2878L53.6484 15.4717L53.8284 13.4526H34.9738Z" fill="white"/>
</svg>
