<svg width="70" height="70" viewBox="0 0 70 70" fill="none" xmlns="http://www.w3.org/2000/svg">
<path d="M26.0405 53.6593C26.0405 53.6593 23.4336 55.1764 27.8983 55.6882C33.3079 56.3062 36.0724 56.2176 42.0322 55.091C42.0322 55.091 43.6023 56.0727 45.7909 56.9236C32.4258 62.6494 15.5444 56.5917 26.0405 53.6593ZM24.4065 46.1863C24.4065 46.1863 21.4818 48.3514 25.9503 48.814C31.7291 49.4107 36.2917 49.4593 44.1908 47.939C44.1908 47.939 45.2807 49.0464 46.9973 49.6513C30.8415 54.3763 12.8472 50.0232 24.4065 46.1863Z" fill="#0074BD"/>
<path d="M38.173 33.5075C41.4679 37.3001 37.3089 40.7099 37.3089 40.7099C37.3089 40.7099 45.6701 36.3945 41.831 30.9881C38.244 25.9486 35.4944 23.4456 50.3814 14.8115C50.3814 14.8121 27.0129 20.6467 38.173 33.5075Z" fill="#EA2D2E"/>
<path d="M55.8485 59.1877C55.8485 59.1877 57.7784 60.7791 53.7223 62.009C46.0102 64.3453 21.6174 65.0496 14.8427 62.1025C12.4086 61.0427 16.975 59.5732 18.4116 59.2632C19.9095 58.9389 20.7648 58.9979 20.7648 58.9979C18.0562 57.091 3.25773 62.744 13.2491 64.3655C40.495 68.7821 62.9147 62.3765 55.8485 59.1877ZM27.2956 38.442C27.2956 38.442 14.8892 41.3891 22.9026 42.4604C26.2866 42.9132 33.0296 42.8093 39.3148 42.2821C44.45 41.8507 49.6032 40.9292 49.6032 40.9292C49.6032 40.9292 47.7941 41.7052 46.4838 42.5988C33.8827 45.9134 9.5457 44.3696 16.5528 40.9811C22.4766 38.1161 27.2956 38.442 27.2956 38.442ZM49.5518 50.8818C62.3602 44.2279 56.4375 37.8333 52.3037 38.6946C51.293 38.9052 50.8397 39.0884 50.8397 39.0884C50.8397 39.0884 51.2159 38.4983 51.9334 38.2446C60.1109 35.3707 66.3988 46.7228 49.2959 51.2192C49.2959 51.2181 49.4922 51.0404 49.5518 50.8818Z" fill="#0074BD"/>
<path d="M41.831 0.86792C41.831 0.86792 48.9229 7.96417 35.1028 18.8727C24.0199 27.626 32.5757 32.6157 35.099 38.319C28.6289 32.4822 23.8831 27.3432 27.0665 22.5608C31.7412 15.5422 44.6917 12.1379 41.831 0.86792Z" fill="#EA2D2E"/>
<path d="M28.5545 68.9178C40.8461 69.7036 59.7264 68.4803 60.1732 62.6637C60.1732 62.6637 59.314 64.8687 50.0139 66.6182C39.5215 68.5935 26.5781 68.3632 18.9038 67.0961C18.9038 67.0967 20.4761 68.3982 28.5545 68.9178Z" fill="#0074BD"/>
</svg>
