<svg width="70" height="70" viewBox="0 0 70 70" fill="none" xmlns="http://www.w3.org/2000/svg">
<g clip-path="url(#clip0_21_240)">
<path d="M0.769989 0.77002H69.23V69.2306H0.769989V0.77002Z" fill="#F0DB4F"/>
<path d="M63.6273 52.9025C63.1258 49.7793 61.0892 47.156 55.0566 44.7098C52.961 43.7468 50.6248 43.0571 49.9286 41.469C49.6814 40.5448 49.6486 40.0242 49.805 39.4647C50.254 37.6491 52.4212 37.0831 54.139 37.6037C55.2453 37.9745 56.2926 38.8271 56.9242 40.1871C59.8784 38.2742 59.8724 38.2868 61.9352 36.9721C61.18 35.8012 60.777 35.2609 60.2826 34.76C58.5058 32.7754 56.0848 31.7532 52.2129 31.8314L50.196 32.0923C48.2634 32.5807 46.4215 33.5951 45.3414 34.9552C42.1006 38.6324 43.0248 45.068 46.9684 47.7165C50.8534 50.6325 56.5605 51.2958 57.2895 54.0225C57.9988 57.3607 54.8362 58.4413 51.6928 58.0574C49.3762 57.5756 48.0878 56.3982 46.6949 54.2571C44.1312 55.7408 44.1312 55.7408 41.4952 57.2568C42.1203 58.6234 42.7771 59.2419 43.8249 60.4259C48.784 65.4561 61.1937 65.2089 63.4194 57.5953C63.5097 57.3339 64.1091 55.5904 63.6273 52.9025ZM37.987 32.2345H31.5837L31.5574 48.7895C31.5574 52.3103 31.7395 55.5379 31.1669 56.5272C30.2302 58.473 27.8026 58.2318 26.6962 57.8545C25.5702 57.3011 24.9977 56.5141 24.3343 55.4018C24.1522 55.0824 24.0155 54.8352 23.9695 54.8161L18.7633 58.0043C19.629 59.7811 20.9043 61.3233 22.5378 62.3252C24.978 63.7897 28.2576 64.2387 31.6876 63.4512C33.9199 62.801 35.846 61.454 36.8544 59.4038C38.3124 56.7159 37.9996 53.4625 37.9865 49.8641C38.0193 43.9934 37.987 38.1238 37.987 32.2345Z" fill="#323330"/>
</g>
<defs>
<clipPath id="clip0_21_240">
<rect width="70" height="70" fill="white"/>
</clipPath>
</defs>
</svg>
