<svg width="70" height="70" viewBox="0 0 70 70" fill="none" xmlns="http://www.w3.org/2000/svg">
<path d="M35 65.625C31.5 62.3194 27.4896 59.7916 22.9687 58.0416C18.4479 56.2916 13.7083 55.4166 8.75 55.4166V23.3333C13.6597 23.3333 18.375 24.2204 22.8958 25.9948C27.4167 27.7691 31.4514 30.3333 35 33.6875C38.5486 30.3333 42.5833 27.7691 47.1042 25.9948C51.625 24.2204 56.3403 23.3333 61.25 23.3333V55.4166C56.2431 55.4166 51.4913 56.2916 46.9948 58.0416C42.4983 59.7916 38.5 62.3194 35 65.625ZM35 58.0416C38.0625 55.7569 41.3194 53.934 44.7708 52.5729C48.2222 51.2118 51.7708 50.3125 55.4167 49.875V29.75C51.8681 30.3819 48.3802 31.6579 44.9531 33.5781C41.526 35.4982 38.2083 38.0625 35 41.2708C31.7917 38.0625 28.474 35.4982 25.0469 33.5781C21.6198 31.6579 18.1319 30.3819 14.5833 29.75V49.875C18.2292 50.3125 21.7778 51.2118 25.2292 52.5729C28.6806 53.934 31.9375 55.7569 35 58.0416ZM35 26.25C31.7917 26.25 29.0451 25.1076 26.7604 22.8229C24.4757 20.5382 23.3333 17.7916 23.3333 14.5833C23.3333 11.375 24.4757 8.62843 26.7604 6.34371C29.0451 4.05899 31.7917 2.91663 35 2.91663C38.2083 2.91663 40.9549 4.05899 43.2396 6.34371C45.5243 8.62843 46.6667 11.375 46.6667 14.5833C46.6667 17.7916 45.5243 20.5382 43.2396 22.8229C40.9549 25.1076 38.2083 26.25 35 26.25ZM35 20.4166C36.6042 20.4166 37.9774 19.8454 39.1198 18.7031C40.2622 17.5607 40.8333 16.1875 40.8333 14.5833C40.8333 12.9791 40.2622 11.6059 39.1198 10.4635C37.9774 9.32114 36.6042 8.74996 35 8.74996C33.3958 8.74996 32.0226 9.32114 30.8802 10.4635C29.7378 11.6059 29.1667 12.9791 29.1667 14.5833C29.1667 16.1875 29.7378 17.5607 30.8802 18.7031C32.0226 19.8454 33.3958 20.4166 35 20.4166Z" fill="#9B37FF"/>
</svg>
