<svg width="70" height="70" viewBox="0 0 70 70" fill="none" xmlns="http://www.w3.org/2000/svg">
<path fill-rule="evenodd" clip-rule="evenodd" d="M48.1458 23.4128C49.0235 25.952 49.6557 28.5442 49.8635 31.231C50.1216 34.5642 50.0035 37.8739 49.3008 41.1524C49.2816 41.2426 49.2412 41.3274 49.2111 41.4149C48.9907 41.4154 48.7659 41.3881 48.5505 41.4214C46.7299 41.7074 44.911 42.0039 43.0921 42.2986C41.212 42.6032 39.3291 42.8958 37.4522 43.2212C36.7872 43.336 35.9641 43.1988 35.6956 44.1186C35.688 44.1438 35.6114 44.1482 35.5671 44.1624L35.6579 38.6657L35.5655 25.4029L36.4416 25.2525C37.8744 25.0179 39.3072 24.78 40.7411 24.552C42.4523 24.2802 44.1651 24.016 45.8773 23.7508C46.6326 23.6332 47.3889 23.5255 48.1458 23.4128Z" fill="#439934"/>
<path fill-rule="evenodd" clip-rule="evenodd" d="M33.758 60.1858C32.8338 59.3912 31.8773 58.6316 30.9914 57.796C26.2243 53.2996 22.7374 48.0075 21.0202 41.6271C20.5472 39.8711 20.2316 38.0866 20.1305 36.2721C20.0594 35.0022 19.9566 33.7209 20.0462 32.4576C20.2852 29.0976 20.7709 25.7699 21.7563 22.5335L21.8105 22.458C21.9062 22.5854 22.044 22.6981 22.0927 22.8419C23.0546 25.6747 24.0095 28.5097 24.9594 31.3464C27.9442 40.2604 30.9252 49.1767 33.915 58.0886C33.9735 58.2625 34.125 58.4052 34.2338 58.5621L33.758 60.1858Z" fill="#45A538"/>
<path fill-rule="evenodd" clip-rule="evenodd" d="M48.1458 23.4128C47.3889 23.5255 46.632 23.6332 45.8768 23.7497C44.1645 24.0149 42.4517 24.279 40.7405 24.5508C39.3066 24.7789 37.8738 25.0168 36.441 25.2514L35.5649 25.4018L35.5584 24.8303C35.5294 24.3605 35.4796 23.8913 35.4741 23.4215C35.4364 20.4258 35.4129 17.43 35.3757 14.4342C35.3527 12.559 35.3183 10.6843 35.28 8.80959C35.2565 7.64475 35.2313 6.47936 35.1788 5.31616C35.1504 4.69108 35.0498 4.06928 35.0087 3.4442C34.9858 3.08491 35.0175 2.72288 35.0246 2.36194C35.4714 3.22764 35.9084 4.09991 36.3677 4.95905C37.0934 6.31749 38.2495 7.31827 39.2902 8.41038C43.4044 12.7263 46.3252 17.7444 48.1458 23.4128Z" fill="#46A037"/>
<path fill-rule="evenodd" clip-rule="evenodd" d="M35.5666 44.1618C35.6109 44.1476 35.688 44.1432 35.6951 44.1181C35.9636 43.1982 36.7866 43.3355 37.4516 43.2207C39.3285 42.8958 41.2114 42.6027 43.0916 42.2981C44.9105 42.0033 46.7294 41.7069 48.5499 41.4209C48.7654 41.387 48.9902 41.4149 49.2105 41.4143C48.8704 42.6284 48.6024 43.8687 48.1709 45.0494C47.6809 46.3887 47.0881 47.6957 46.4587 48.9771C45.5163 50.8882 44.35 52.6805 42.9844 54.3162C41.9349 55.5784 40.7652 56.7449 39.5927 57.8971C38.9446 58.5343 38.1806 59.0532 37.4697 59.6258L37.2854 59.5L36.6215 58.9324L35.9346 57.4268C35.4654 55.6705 35.2095 53.8642 35.1723 52.0467L35.1848 51.7399L35.2784 50.4132C35.3095 49.9603 35.3511 49.5081 35.3702 49.0542C35.4408 47.4234 35.502 45.7926 35.5666 44.1618Z" fill="#409433"/>
<path fill-rule="evenodd" clip-rule="evenodd" d="M35.5666 44.1619C35.502 45.7926 35.4408 47.4234 35.3713 49.0547C35.3522 49.5087 35.3106 49.9609 35.2795 50.4137L34.8611 50.5718C33.932 47.8363 33.0023 45.1298 32.0928 42.4162C30.5889 37.9269 29.103 33.4305 27.6013 28.9401C26.3884 25.3157 25.1671 21.6941 23.9373 18.0754C23.8798 17.9058 23.7147 17.7735 23.5998 17.6237L26.2773 12.7007C26.3692 12.8604 26.4906 13.0097 26.5486 13.1814C27.7887 16.8466 29.0224 20.514 30.2498 24.1834C31.8445 28.9576 33.4294 33.7357 35.023 38.5104C35.0864 38.7013 35.1914 38.8774 35.2915 39.0912L35.6579 38.6647L35.5666 44.1619Z" fill="#4FAA41"/>
<path fill-rule="evenodd" clip-rule="evenodd" d="M23.6004 17.6241C23.7152 17.774 23.8798 17.9063 23.9378 18.0759C25.1676 21.6946 26.389 25.3162 27.6019 28.9406C29.1036 33.431 30.5895 37.9274 32.0934 42.4167C33.0023 45.1298 33.932 47.8368 34.8616 50.5723L35.28 50.4142L35.1865 51.7409L35.1017 52.0466C34.9562 53.4991 34.8338 54.9549 34.6566 56.4041C34.5674 57.1304 34.3782 57.8435 34.2344 58.5627C34.1261 58.4057 33.9741 58.263 33.9155 58.0891C30.9258 49.1766 27.9448 40.2609 24.9599 31.3469C24.0103 28.51 23.0548 25.6752 22.0932 22.8424C22.0445 22.6986 21.9073 22.5859 21.811 22.4585L23.6004 17.6241Z" fill="#4AA73C"/>
<path fill-rule="evenodd" clip-rule="evenodd" d="M35.6573 38.6652L35.2909 39.0917C35.1909 38.8779 35.0859 38.7013 35.0224 38.511C33.4294 33.7362 31.844 28.9581 30.2493 24.1839C29.0219 20.5145 27.7881 16.8471 26.548 13.1819C26.4906 13.0102 26.3692 12.8603 26.2768 12.7012L29.5881 8.34534C29.6926 8.48479 29.8413 8.60893 29.8955 8.76588C30.8148 11.4571 31.7259 14.1515 32.6315 16.8476C33.4775 19.3654 34.3109 21.8871 35.1668 24.4016C35.2242 24.57 35.4238 24.6892 35.5573 24.8314L35.5638 25.4029C35.5955 29.8228 35.6267 34.2442 35.6573 38.6652Z" fill="#57AE47"/>
<path fill-rule="evenodd" clip-rule="evenodd" d="M35.5584 24.8303C35.4249 24.6882 35.2253 24.5689 35.1679 24.4005C34.312 21.886 33.4786 19.3643 32.6326 16.8465C31.727 14.1504 30.8159 11.4565 29.8966 8.7648C29.8424 8.60784 29.6937 8.4837 29.5892 8.34425C30.666 7.28987 31.7095 6.19776 32.8295 5.19206C33.8253 4.29847 34.6259 3.34034 34.6626 1.92831C34.6642 1.86979 34.6948 1.81128 34.7419 1.64722L35.0257 2.36144C35.0186 2.72292 34.9863 3.0844 35.0098 3.4437C35.0509 4.06878 35.1515 4.69058 35.1799 5.31565C35.2324 6.47886 35.2576 7.64425 35.2811 8.80909C35.3188 10.6838 35.3533 12.5585 35.3768 14.4337C35.4134 17.4295 35.4375 20.4253 35.4752 23.421C35.4796 23.8919 35.5288 24.3606 35.5584 24.8303Z" fill="#60B24F"/>
<path fill-rule="evenodd" clip-rule="evenodd" d="M34.2333 58.5621C34.3771 57.843 34.5663 57.1293 34.6555 56.4036C34.8332 54.9549 34.9552 53.4986 35.1006 52.0461L35.1367 52.0406L35.1728 52.0467C35.21 53.8641 35.466 55.6705 35.9352 57.4268C35.8389 57.5537 35.7027 57.6669 35.6519 57.8102C35.2543 58.9313 34.8797 60.0611 34.4799 61.1822C34.4252 61.3353 34.2732 61.4546 34.166 61.5891L33.7575 60.1858L34.2333 58.5621Z" fill="#A9AA88"/>
<path fill-rule="evenodd" clip-rule="evenodd" d="M34.1666 61.5896C34.2738 61.4551 34.4263 61.3359 34.4805 61.1828C34.8802 60.0617 35.2554 58.9324 35.6524 57.8107C35.7033 57.6674 35.8389 57.5542 35.9357 57.4274L36.622 58.9335C36.4864 59.126 36.2994 59.2993 36.2239 59.5137L34.9092 63.3741C34.8551 63.5289 34.6702 63.6382 34.5466 63.7689L34.1666 61.5896Z" fill="#B6B598"/>
<path fill-rule="evenodd" clip-rule="evenodd" d="M34.5466 63.7683C34.6708 63.6382 34.8551 63.5283 34.9092 63.3735L36.2239 59.5131C36.2988 59.2993 36.4864 59.1254 36.622 58.9329L37.2865 59.5C36.9655 59.8172 36.7872 60.1836 36.8944 60.6468L36.6926 61.3074C36.6007 61.4206 36.4678 61.519 36.4224 61.6486C35.9636 62.9628 35.5255 64.284 35.0634 65.5982C35.0049 65.765 34.8425 65.8957 34.7277 66.0422C34.668 65.2837 34.6073 64.5268 34.5466 63.7683Z" fill="#C2C1A7"/>
<path fill-rule="evenodd" clip-rule="evenodd" d="M34.7282 66.0422C34.8425 65.8951 35.0049 65.7644 35.064 65.5982C35.5261 64.2846 35.9641 62.9633 36.423 61.6486C36.4684 61.5196 36.6007 61.4206 36.6931 61.3074L36.4148 64.3398C36.3404 64.4257 36.2327 64.5006 36.1971 64.6007C35.8827 65.4833 35.5863 66.3725 35.2707 67.2552C35.2056 67.4373 35.0809 67.5981 34.9836 67.7682C34.8972 67.6549 34.7424 67.5456 34.7353 67.4274C34.7074 66.9675 34.7266 66.5043 34.7282 66.0422Z" fill="#CECDB7"/>
<path fill-rule="evenodd" clip-rule="evenodd" d="M34.983 67.7682C35.0804 67.5976 35.2051 67.4368 35.2702 67.2552C35.5863 66.3731 35.8821 65.4839 36.1966 64.6007C36.2321 64.5006 36.3404 64.4263 36.4142 64.3398L36.4208 66.3305L35.7547 68.0389L34.983 67.7682Z" fill="#DBDAC7"/>
<path fill-rule="evenodd" clip-rule="evenodd" d="M35.7547 68.0395L36.4208 66.3311L36.558 68.3523L35.7547 68.0395Z" fill="#EBE9DC"/>
<path fill-rule="evenodd" clip-rule="evenodd" d="M36.8944 60.6473C36.7872 60.1841 36.9649 59.8171 37.2865 59.5005L37.4708 59.6263L36.8944 60.6473Z" fill="#CECDB7"/>
<path fill-rule="evenodd" clip-rule="evenodd" d="M35.1728 52.0472L35.1367 52.0412L35.1006 52.0467L35.1854 51.741L35.1728 52.0472Z" fill="#4FAA41"/>
</svg>
