<svg width="70" height="70" viewBox="0 0 70 70" fill="none" xmlns="http://www.w3.org/2000/svg">
<g clip-path="url(#clip0_21_285)">
<path d="M64.3606 53.7261C60.5473 53.6216 57.6357 53.9782 55.1447 55.0271C54.4376 55.3262 53.3099 55.3328 53.1945 56.2193C53.5834 56.6272 53.643 57.2359 53.953 57.7379C54.5469 58.6972 55.551 59.9872 56.4462 60.6648C57.4246 61.402 58.433 62.1922 59.4819 62.831C61.349 63.9696 63.432 64.6193 65.2263 65.7579C66.2862 66.4305 67.3367 67.2765 68.3709 68.035C68.8816 68.4091 69.2256 68.9921 69.8873 69.2272V69.1206C69.539 68.6765 69.4493 68.0651 69.1288 67.6019L67.719 66.1921C66.3409 64.3633 64.5914 62.7572 62.7331 61.4239C61.2505 60.358 57.931 58.9203 57.3136 57.1965L57.2048 57.0877C58.2559 56.9679 59.4863 56.5879 60.4581 56.327C62.0878 55.8911 63.5452 56.0043 65.2263 55.5685L67.5035 54.9193V54.4857C66.6531 53.614 66.0466 52.4584 65.1197 51.6682C62.691 49.6004 60.0419 47.5365 57.3141 45.815C55.8015 44.8601 53.9323 44.2383 52.3283 43.429C51.788 43.1577 50.8413 43.0144 50.4848 42.5616C49.6431 41.4892 49.1837 40.1286 48.5346 38.8768C47.174 36.2556 45.8385 33.3954 44.6316 30.6376C43.8091 28.7579 43.2731 26.9035 42.2477 25.218C37.3259 17.1259 32.0283 12.2407 23.8208 7.44021C22.0735 6.41919 19.9713 6.0156 17.7494 5.48786L14.1712 5.27185C13.4427 4.96833 12.6864 4.07747 12.0028 3.6438C9.28429 1.92497 2.30944 -1.81128 0.294757 3.10185C-0.97618 6.20154 2.19624 9.2263 3.33046 10.7986C4.12726 11.8989 5.14609 13.1354 5.71429 14.3746C6.09054 15.1905 6.15452 16.0065 6.47499 16.8678C7.2614 18.9913 7.94882 21.3024 8.96819 23.2635C9.4828 24.2566 10.051 25.3017 10.7029 26.1904C11.1005 26.7351 11.7857 26.9768 11.8951 27.8162C11.2241 28.7541 11.1858 30.2088 10.8101 31.3944C9.11585 36.7374 9.75679 43.3765 12.2199 47.3287C12.9762 48.5444 14.758 51.1459 17.2058 50.1484C19.3484 49.2745 18.8699 46.5724 19.483 44.1864C19.6219 43.6461 19.5366 43.2485 19.8078 42.8854V42.9942L21.7601 46.8951C23.2044 49.2215 25.7655 51.6523 27.9382 53.2929C29.0642 54.1433 29.9507 55.6128 31.4076 56.1104V56.0016H31.2987C31.0166 55.5614 30.5747 55.3798 30.2159 55.0276C29.3677 54.1947 28.4238 53.1606 27.7227 52.2079C25.7469 49.5272 24.0012 46.5915 22.412 43.5372C21.6513 42.0782 20.9912 40.4698 20.3503 38.9851C20.1026 38.4125 20.1069 37.5451 19.5918 37.2504C18.8912 38.3376 17.8571 39.218 17.3146 40.5015C16.4494 42.5545 16.3362 45.0603 16.0158 47.6558C15.8255 47.7241 15.9091 47.6771 15.7981 47.7646C14.2876 47.3993 13.7583 45.8461 13.1961 44.5112C11.7775 41.1403 11.5128 35.712 12.7624 31.8286C13.0851 30.8246 14.5463 27.6631 13.9546 26.734C13.6724 25.8092 12.7411 25.2727 12.2199 24.5656C11.5746 23.6917 10.932 22.5405 10.4852 21.5299C9.32312 18.9022 8.7828 15.9501 7.55835 13.2929C6.9732 12.0219 5.98609 10.7357 5.17452 9.60802C4.27491 8.35622 3.26921 7.4331 2.57249 5.92099C2.32476 5.38286 1.98952 4.52154 2.35484 3.97083C2.47241 3.59677 2.63702 3.44091 3.00616 3.31951C3.63398 2.83443 5.38616 3.48193 6.03968 3.75318C7.77874 4.47505 9.22905 5.16302 10.7029 6.13919C11.4078 6.60677 12.1237 7.51294 12.9779 7.76505H13.9541C15.4793 8.1156 17.1883 7.87169 18.6151 8.30536C21.1356 9.07208 23.3937 10.2643 25.4444 11.5587C31.6909 15.5044 36.8009 21.1181 40.2954 27.8195C40.857 28.8985 41.1009 29.9261 41.5964 31.0707C42.5939 33.3779 43.8523 35.7514 44.8454 38.0094C45.8385 40.2587 46.8043 42.5321 48.2076 44.4051C48.9448 45.39 51.7901 45.9178 53.0846 46.4647C53.9924 46.8469 55.4794 47.2467 56.338 47.7657C57.9786 48.755 59.5678 49.934 61.1084 51.0168C61.8751 51.5593 64.2419 52.7494 64.3595 53.7277L64.3606 53.7261ZM15.9048 12.4261C15.1101 12.4113 14.5485 12.5114 13.9546 12.6421V12.7509H14.0612C14.4413 13.5286 15.1101 14.0306 15.5799 14.7011L16.6627 16.9783L16.7716 16.8716C17.4426 16.3975 17.7499 15.6411 17.7455 14.4856C17.4765 14.2012 17.4382 13.849 17.203 13.5094C16.8957 13.0588 16.2952 12.8045 15.9042 12.4266L15.9048 12.4261Z" fill="#00618A"/>
</g>
<defs>
<clipPath id="clip0_21_285">
<rect width="70" height="70" fill="white"/>
</clipPath>
</defs>
</svg>
