<svg width="70" height="70" viewBox="0 0 70 70" fill="none" xmlns="http://www.w3.org/2000/svg">
<path d="M51.3018 50.3738C51.7311 46.8011 51.6026 46.2766 54.2637 46.8558L54.9391 46.9148C56.9855 47.0078 59.6624 46.5856 61.2353 45.855C64.621 44.2838 66.628 41.6615 63.2904 42.3501C55.6757 43.9212 55.1524 41.3427 55.1524 41.3427C63.1931 29.4126 66.5542 14.268 63.6524 10.5608C55.7392 0.449587 42.0416 5.23091 41.8124 5.35451L41.7392 5.36818C40.2347 5.05591 38.5509 4.86943 36.6592 4.8388C33.2134 4.78193 30.5988 5.74224 28.6153 7.24615C28.6153 7.24615 4.17924 -2.82127 5.31619 19.9069C5.55791 24.7418 12.2462 56.4917 20.224 46.9017C23.1399 43.3951 25.9574 40.43 25.9574 40.43C27.3563 41.3591 29.032 41.8338 30.7885 41.6632L30.9247 41.5472C30.882 41.9826 30.9006 42.4086 30.9788 42.9128C28.9242 45.2091 29.528 45.6122 25.4193 46.4576C21.262 47.314 23.7043 48.8393 25.2985 49.2379C27.2317 49.7214 31.7035 50.4061 34.7255 46.1765L34.6052 46.6589C35.4113 47.3042 35.3571 51.2947 35.4709 54.1456C35.5852 56.997 35.776 59.6576 36.3574 61.2265C36.9387 62.795 37.6245 66.8353 43.0243 65.6781C47.5371 64.7134 50.9874 63.3216 51.3018 50.3738Z" fill="black"/>
<path d="M41.2661 68.4994C38.8779 68.4994 37.3226 67.5758 36.3781 66.6838C34.9524 65.3385 34.3869 63.6054 34.049 62.5702L33.903 62.1382C33.2226 60.3018 32.9919 57.6576 32.8551 54.2528C32.8344 53.7415 32.8201 53.2148 32.8043 52.6565C32.7928 52.2479 32.7786 51.7355 32.7578 51.1996C31.8974 51.6098 30.9841 51.8984 30.0442 52.0571C28.3604 52.3447 26.5502 52.2518 24.663 51.7798C23.3313 51.4468 21.9477 50.7566 21.1591 49.6908C18.8606 51.7038 16.6682 51.4309 15.4738 51.0322C13.3667 50.3295 11.4811 48.3547 9.70866 44.9964C8.44592 42.6038 7.22475 39.4866 6.0785 35.7307C4.08241 29.1901 2.8142 22.3011 2.70155 20.0392C2.34717 12.9599 4.25303 7.89692 8.36498 4.99247C14.8515 0.410753 24.6794 3.10521 28.2625 4.32857C30.6698 2.87771 33.5021 2.17169 36.7024 2.22255C38.4212 2.25044 40.058 2.40138 41.5783 2.67263C43.1643 2.17388 46.2968 1.45802 49.8826 1.50286C56.4894 1.58161 61.9642 4.1563 65.7141 8.94857C68.3905 12.3676 67.0671 19.5476 66.0406 23.5233C64.5958 29.1157 62.0643 35.0635 58.9548 40.2413C59.7991 40.2473 61.0225 40.1461 62.7615 39.7868C66.1926 39.0786 67.1962 40.9183 67.4685 41.7419C68.5595 45.0461 63.817 47.5432 62.3377 48.2301C60.4422 49.11 57.3519 49.6459 54.8209 49.53L54.7105 49.5229L54.0455 49.4643L53.9798 50.0189L53.9164 50.5608C53.7463 57.1228 52.809 61.2785 50.8801 64.0243C48.8583 66.9031 46.0485 67.7097 43.5733 68.2402C42.729 68.4207 41.9617 68.4994 41.2661 68.4994ZM36.2403 44.6168C37.7819 45.8506 37.917 48.1721 38.0379 52.5104C38.0532 53.0518 38.0674 53.5643 38.0865 54.0428C38.1445 55.492 38.2807 58.8854 38.8123 60.3193C38.8872 60.5222 38.9544 60.7278 39.0255 60.946C39.6178 62.7594 39.9147 63.6689 42.4758 63.1215C44.6255 62.6604 45.7308 62.247 46.5959 61.0154C47.8532 59.225 48.5565 55.6233 48.6855 50.3104L51.3012 50.3738L48.7036 50.0621L48.7801 49.4135C49.029 47.2752 49.2083 45.7308 50.6373 44.7093C51.7841 43.8901 53.0906 43.9694 54.1313 44.1569C52.9878 43.2929 52.6717 42.2795 52.5875 41.8639L52.3693 40.7893L52.9823 39.8798C56.5135 34.6408 59.4251 28.2018 60.9716 22.2136C62.5608 16.0607 62.0763 12.7931 61.5918 12.1751C55.1775 3.97911 44.0546 7.36318 42.893 7.74708L42.6967 7.85318L41.7123 8.03638L41.2081 7.93193C39.818 7.64318 38.2736 7.48349 36.6182 7.45669C34.0173 7.41294 31.9189 8.02763 30.1984 9.33302L29.0046 10.2381L27.6194 9.66771C24.6597 8.45747 15.9665 6.02443 11.3794 9.27341C8.83311 11.077 7.67319 14.6109 7.93131 19.7772C8.01663 21.4829 9.17545 27.9399 11.0873 34.2022C13.7293 42.8565 16.1301 45.7314 17.1325 46.0655C17.3075 46.1246 17.7614 45.7719 18.2131 45.2294C20.0966 42.9715 22.0468 40.7703 24.0614 38.6286L25.5762 37.0344L27.4077 38.2512C28.146 38.7418 28.9603 39.0201 29.7965 39.0726L34.1644 35.3473L33.5316 41.8048C33.5174 41.9497 33.5103 42.1472 33.5672 42.5136L33.7575 43.7375L32.9317 44.6606L32.8365 44.7678L35.2362 45.8752L36.2403 44.6168Z" fill="black"/>
<path d="M63.2904 42.35C55.6751 43.9212 55.1518 41.3426 55.1518 41.3426C63.1925 29.412 66.5536 14.2669 63.6529 10.5607C55.7397 0.450066 42.041 5.23139 41.8124 5.35553L41.7386 5.36866C40.2341 5.05639 38.5503 4.87046 36.6576 4.83983C33.2117 4.7835 30.5982 5.74327 28.6147 7.24718C28.6147 7.24718 4.1781 -2.8197 5.3145 19.9079C5.55622 24.7433 12.2445 56.4933 20.2223 46.9033C23.1383 43.3967 25.9552 40.4316 25.9552 40.4316C27.3547 41.3607 29.0297 41.8354 30.7858 41.6648L30.9225 41.5488C30.8798 41.9841 30.8995 42.4101 30.9772 42.9144C28.922 45.2107 29.5258 45.6137 25.4171 46.4592C21.2597 47.3156 23.7021 48.8409 25.2968 49.2395C27.2294 49.723 31.7018 50.4076 34.7233 46.1781L34.6024 46.6605C35.4079 47.3058 35.9734 50.8561 35.8788 54.0744C35.7836 57.2928 35.7202 59.5027 36.3551 61.2287C36.9895 62.9546 37.6217 66.8374 43.0226 65.6802C47.5354 64.7133 49.8739 62.207 50.1998 58.0267C50.4306 55.0544 50.9529 55.4941 50.9862 52.8369L51.4057 51.5791C51.8891 47.5502 51.4822 46.2509 54.2631 46.8551L54.9385 46.9142C56.9849 47.0072 59.6629 46.585 61.2352 45.8544C64.6204 44.2843 66.6279 41.6615 63.2904 42.35Z" fill="#336791"/>
<path d="M41.539 66.8867C37.0371 66.8867 35.6109 63.3216 35.0273 61.8636C34.1731 59.727 33.9888 51.4353 34.1791 44.6354C34.182 44.5208 34.2075 44.4078 34.2541 44.303C34.3008 44.1982 34.3678 44.1037 34.4511 44.0249C34.5345 43.9461 34.6326 43.8846 34.7399 43.8439C34.8471 43.8032 34.9614 43.7841 35.076 43.7878C35.1905 43.7909 35.3033 43.8166 35.408 43.8633C35.5126 43.9101 35.6069 43.977 35.6857 44.0602C35.7644 44.1435 35.8259 44.2414 35.8668 44.3485C35.9076 44.4555 35.9269 44.5696 35.9237 44.6841C35.7044 52.5268 36.0155 59.634 36.6477 61.2156C37.6343 63.6814 39.1305 65.8383 43.3606 64.9322C47.3763 64.0708 48.8802 62.5483 49.5502 58.665C50.0642 55.685 51.0809 47.2074 51.2061 45.5345C51.2145 45.4202 51.2453 45.3086 51.2969 45.2063C51.3484 45.1039 51.4197 45.0127 51.5066 44.9379C51.5935 44.8631 51.6942 44.8062 51.8031 44.7705C51.9121 44.7347 52.0269 44.7208 52.1412 44.7295C52.3719 44.747 52.5862 44.8553 52.7372 45.0306C52.8881 45.2059 52.9633 45.4339 52.9462 45.6647C52.8155 47.4065 51.8038 55.8677 51.2701 58.9619C50.4793 63.5486 48.4345 65.6289 43.7265 66.6384C42.9264 66.8096 42.1996 66.8861 41.539 66.8867ZM17.1287 49.4736C16.7352 49.4723 16.3444 49.4077 15.9715 49.2822C13.0473 48.3066 10.2621 43.5444 7.69289 35.1264C5.73726 28.7186 4.49804 22.0304 4.38921 19.8565C4.0671 13.4122 5.72632 8.85286 9.32203 6.30606C16.4352 1.26606 28.4014 6.06544 28.9073 6.27215C29.1216 6.35969 29.2923 6.52876 29.3819 6.74219C29.4716 6.95561 29.4728 7.1959 29.3852 7.4102C29.2977 7.6245 29.1286 7.79525 28.9152 7.88488C28.7018 7.97452 28.4615 7.9757 28.2472 7.88817C28.1318 7.84114 16.6573 3.24411 10.3272 7.73231C7.25265 9.91215 5.84117 13.9623 6.13156 19.7696C6.22289 21.6011 7.38062 28.1286 9.3614 34.6167C11.655 42.1318 14.2652 46.8738 16.5233 47.6268C16.8777 47.745 17.9561 48.1043 19.4977 46.2504C21.2955 44.0912 23.1608 41.9891 25.0906 39.9471C25.2521 39.786 25.4702 39.6946 25.6983 39.6923C25.9263 39.69 26.1462 39.7771 26.3109 39.9349C26.4756 40.0927 26.5719 40.3087 26.5793 40.5366C26.5868 40.7646 26.5047 40.9864 26.3506 41.1546C26.3244 41.1819 23.6999 43.9256 20.8398 47.3665C19.4851 48.9957 18.1869 49.4736 17.1287 49.4736ZM55.0977 42.1209C54.9395 42.1207 54.7843 42.0775 54.6487 41.9959C54.5132 41.9143 54.4024 41.7975 54.3281 41.6578C54.2539 41.5181 54.219 41.3608 54.2272 41.2029C54.2354 41.0449 54.2864 40.8921 54.3747 40.7608C62.5029 28.6995 65.3559 14.1258 62.9125 11.0032C59.8369 7.07333 55.4941 5.0209 50.0041 4.90223C45.9391 4.81473 42.7082 5.8527 42.1799 6.03372L42.047 6.08786C41.516 6.25465 41.1086 5.96372 40.9549 5.62356C40.8673 5.42867 40.854 5.20846 40.9176 5.00445C40.9812 4.80045 41.1172 4.62676 41.3 4.51614C41.3251 4.50137 41.405 4.46747 41.5346 4.41989C42.432 4.09122 45.7122 3.10684 49.7749 3.15333C55.8496 3.21786 60.8677 5.56012 64.2857 9.92801C65.9028 11.9947 65.9066 16.7557 64.2961 22.9912C62.6544 29.3486 59.5651 36.1808 55.8212 41.7365C55.6538 41.9864 55.3782 42.1209 55.0977 42.1209ZM55.5133 47.7045C54.1253 47.7045 52.8812 47.5087 52.1363 47.0625C51.3707 46.6036 51.2247 45.9802 51.2055 45.6493C50.9966 41.9798 53.0212 41.3411 54.0537 41.0496C53.9098 40.8319 53.7053 40.576 53.4937 40.3118C52.8916 39.5593 52.0669 38.529 51.4314 36.9879C51.3319 36.7473 51.0202 36.1879 50.6592 35.5398C48.702 32.03 44.6294 24.7264 47.2456 20.9864C48.4564 19.2555 50.8676 18.5741 54.4201 18.9542C53.375 15.7703 48.3984 5.81059 36.5898 5.617C33.0384 5.55794 30.1257 6.65005 27.9371 8.85997C23.0371 13.8086 23.2143 22.7626 23.217 22.8523C23.22 22.9669 23.2005 23.0809 23.1594 23.1879C23.1184 23.2948 23.0567 23.3927 22.9778 23.4758C22.8989 23.559 22.8045 23.6257 22.6998 23.6724C22.5951 23.719 22.4823 23.7445 22.3677 23.7475C22.2532 23.7506 22.1392 23.731 22.0322 23.6899C21.9252 23.6489 21.8273 23.5872 21.7442 23.5083C21.6611 23.4294 21.5943 23.335 21.5477 23.2303C21.5011 23.1256 21.4755 23.0128 21.4725 22.8982C21.4616 22.5007 21.2789 13.1043 26.6973 7.63169C29.2332 5.07067 32.5713 3.8063 36.6187 3.87247C44.1733 3.99661 49.0361 7.83731 51.7847 11.0371C54.781 14.5245 56.2499 18.3712 56.3708 19.6553C56.461 20.6101 55.7758 20.801 55.6374 20.8294L55.3224 20.8365C51.8361 20.2782 49.5994 20.6659 48.6746 21.9872C46.6845 24.8315 50.5373 31.7401 52.1823 34.6905C52.6023 35.443 52.9052 35.9872 53.0441 36.3229C53.5844 37.6332 54.2894 38.5137 54.8554 39.2214C55.3536 39.8437 55.7851 40.3835 55.9393 41.0168C56.0109 41.1425 57.0276 42.6465 63.0602 41.4012C64.5723 41.0895 65.479 41.3558 65.7562 42.1942C66.3015 43.843 63.2423 45.7664 61.5486 46.5528C60.031 47.2583 57.6089 47.7045 55.5133 47.7045ZM52.9452 45.5055C53.1366 45.6986 54.0941 46.0316 56.0771 45.9463C57.8402 45.8708 59.6996 45.4875 60.8152 44.9696C62.242 44.3068 63.1947 43.5658 63.688 43.0599L63.4145 43.1102C59.5574 43.9065 56.8291 43.8004 55.3055 42.7947C55.2031 42.727 55.1045 42.6538 55.0101 42.5754C54.845 42.6404 54.6924 42.6831 54.5836 42.7137C53.7195 42.956 52.8259 43.207 52.9452 45.5055ZM28.0284 50.3809C27.0703 50.3809 26.0619 50.2502 25.0321 49.9926C23.9652 49.7257 22.1665 48.9224 22.1938 47.6028C22.225 46.1224 24.378 45.6783 25.1885 45.5115C28.1165 44.9083 28.3073 44.6666 29.2223 43.5045C29.4891 43.166 29.8211 42.7443 30.2739 42.239C30.946 41.4865 31.6805 41.1054 32.457 41.1054C32.9979 41.1054 33.4414 41.2886 33.7345 41.4105C34.6686 41.7977 35.4479 42.734 35.7684 43.8534C36.0576 44.8635 35.9193 45.8358 35.3801 46.5911C33.6098 49.07 31.0674 50.3809 28.0284 50.3809ZM24.0789 47.6777C24.3419 47.8811 24.8691 48.1529 25.4559 48.2995C26.3479 48.5226 27.213 48.6358 28.029 48.6358C30.5151 48.6358 32.5112 47.6066 33.9609 45.5766C34.2634 45.1533 34.1726 44.6157 34.0916 44.333C33.9221 43.7407 33.501 43.2021 33.0673 43.0222C32.8322 42.9248 32.6369 42.8504 32.4576 42.8504C32.3613 42.8504 32.0682 42.8504 31.5749 43.4022C31.2345 43.7851 30.9073 44.1794 30.5938 44.5846C29.4541 46.0316 28.9319 46.5227 25.5412 47.2211C24.7138 47.3906 24.2894 47.5634 24.0789 47.6777ZM30.7885 43.6527C30.5802 43.6524 30.3789 43.5775 30.2209 43.4417C30.063 43.306 29.9588 43.1181 29.9272 42.9122C29.9055 42.7674 29.8909 42.6216 29.8834 42.4753C27.6609 42.4337 25.5166 41.48 23.8886 39.7814C21.8302 37.6338 20.8934 34.6582 21.3188 31.6182C21.7809 28.3167 21.6081 25.4024 21.5152 23.8367C21.4894 23.4014 21.4709 23.0869 21.4719 22.8693C21.4736 22.5931 21.4791 21.8608 23.9269 20.62C24.7975 20.1786 26.5431 19.4086 28.4501 19.2112C31.6094 18.8847 33.6919 20.2918 34.3153 23.1739C35.998 30.9548 34.4487 34.3963 33.3173 36.9097C33.1067 37.3779 32.9076 37.8197 32.7485 38.2479L32.608 38.6253C32.0102 40.2282 31.4934 41.6129 31.652 42.647C31.6694 42.7603 31.6644 42.8758 31.6371 42.9871C31.6098 43.0984 31.5609 43.2033 31.4931 43.2956C31.4253 43.388 31.34 43.4661 31.242 43.5255C31.144 43.5849 31.0352 43.6244 30.9219 43.6418L30.7885 43.6527ZM23.2225 23.111L23.2564 23.7339C23.3527 25.3603 23.532 28.3867 23.0464 31.8604C22.6959 34.3679 23.4615 36.8151 25.148 38.5739C26.4808 39.964 28.2346 40.7313 30.0371 40.7313H30.0743C30.2761 39.8809 30.6113 38.9829 30.9723 38.0155L31.1117 37.6404C31.2916 37.1569 31.5022 36.6888 31.7253 36.1933C32.8141 33.774 34.1698 30.7623 32.6085 23.543C32.2995 22.1129 31.5498 21.2855 30.3176 21.0126C27.7867 20.4537 24.0149 22.3574 23.2225 23.111ZM28.4889 22.7407C28.4452 23.0492 29.0538 23.8728 29.8479 23.9827C30.6403 24.0937 31.3184 23.4495 31.3616 23.1411C31.4048 22.8326 30.7967 22.4925 30.0027 22.382C29.2091 22.2715 28.531 22.4323 28.4889 22.7407ZM30.03 24.2862L29.8074 24.2709C29.3152 24.2025 28.8176 23.8925 28.4769 23.4407C28.3571 23.2822 28.1619 22.9748 28.2007 22.7003C28.2559 22.2978 28.747 22.0566 29.5132 22.0566C29.6844 22.0566 29.8626 22.0692 30.042 22.0943C30.4609 22.1523 30.8498 22.2732 31.1369 22.4334C31.6345 22.7112 31.6712 23.0213 31.6487 23.1815C31.5875 23.6261 30.8804 24.2862 30.03 24.2862ZM28.7782 22.7922C28.8028 22.9825 29.2742 23.6103 29.8878 23.695L30.0305 23.7049C30.5971 23.7049 31.0204 23.2592 31.0702 23.1132C31.0177 23.0136 30.6534 22.7665 29.9627 22.6702C29.814 22.6489 29.664 22.6381 29.5137 22.6379C29.0697 22.6379 28.834 22.738 28.7782 22.7922ZM52.6247 22.1113C52.6679 22.4197 52.0598 23.2433 51.2662 23.3538C50.4733 23.4643 49.7946 22.8206 49.7509 22.5122C49.7093 22.2037 50.3174 21.863 51.1104 21.7531C51.9034 21.6421 52.5809 21.8034 52.6247 22.1113ZM51.083 23.5113C50.3196 23.5113 49.6606 22.9174 49.6065 22.5318C49.5436 22.0692 50.3054 21.7175 51.0896 21.6087C51.2624 21.5847 51.4336 21.5726 51.5982 21.5726C52.2752 21.5726 52.7237 21.7711 52.7685 22.0916C52.7975 22.2989 52.6384 22.6188 52.3644 22.9075C52.1834 23.0973 51.8033 23.426 51.2854 23.4976L51.083 23.5113ZM51.5987 21.8636C51.4478 21.8636 51.2903 21.875 51.1306 21.8969C50.3426 22.0068 49.8723 22.3229 49.8952 22.4925C49.9215 22.679 50.4246 23.2209 51.0836 23.2209L51.246 23.2094C51.6764 23.1498 51.9996 22.8687 52.1538 22.7068C52.3961 22.4525 52.4923 22.213 52.4809 22.1315C52.4655 22.0232 52.1746 21.8636 51.5987 21.8636ZM53.7671 39.8246C53.609 39.8247 53.4539 39.7818 53.3183 39.7005C53.1827 39.6192 53.0718 39.5025 52.9974 39.363C52.923 39.2235 52.888 39.0664 52.896 38.9085C52.904 38.7506 52.9549 38.5979 53.043 38.4667C54.9013 35.6913 54.5612 32.8612 54.2325 30.1241C54.0919 28.9582 53.9476 27.7523 53.9848 26.5951C54.023 25.4046 54.1745 24.4224 54.3205 23.4725C54.4939 22.347 54.658 21.2839 54.5901 20.0217C54.584 19.9073 54.6004 19.7928 54.6385 19.6847C54.6765 19.5767 54.7355 19.4772 54.8121 19.3919C54.8886 19.3066 54.9812 19.2373 55.0845 19.1878C55.1878 19.1383 55.2999 19.1097 55.4143 19.1035C55.5287 19.0973 55.6432 19.1137 55.7513 19.1518C55.8593 19.1899 55.9588 19.2489 56.0441 19.3254C56.1293 19.4019 56.1987 19.4945 56.2482 19.5978C56.2977 19.7012 56.3263 19.8132 56.3325 19.9276C56.4102 21.3703 56.2248 22.5734 56.0454 23.7377C55.907 24.6362 55.7637 25.5654 55.7293 26.6509C55.6959 27.6757 55.8266 28.764 55.965 29.9157C56.315 32.8262 56.7115 36.125 54.4934 39.4374C54.4135 39.5567 54.3054 39.6544 54.1787 39.722C54.052 39.7895 53.9107 39.8247 53.7671 39.8246Z" fill="white"/>
</svg>
