<svg width="70" height="70" viewBox="0 0 70 70" fill="none" xmlns="http://www.w3.org/2000/svg">
<path d="M34.667 6.69807C32.358 6.709 30.1541 6.90533 28.2138 7.24877C22.499 8.2583 21.4621 10.3714 21.4621 14.269V19.4156H34.9661V21.1312H16.3937C12.4693 21.1312 9.03274 23.4899 7.95758 27.9786C6.71727 33.122 6.66258 36.3321 7.95758 41.703C8.91735 45.7012 11.2098 48.5493 15.1348 48.5493H19.7783V42.3795C19.7783 37.9219 23.6343 33.9904 28.2144 33.9904H41.7031C45.4579 33.9904 48.4548 30.8984 48.4548 27.1282V14.2696C48.4548 10.6093 45.3671 7.86018 41.7031 7.24932C39.3821 6.86322 36.9753 6.68768 34.667 6.69807ZM27.364 10.8374C28.7585 10.8374 29.8982 11.9951 29.8982 13.4192C29.8982 14.8372 28.7591 15.984 27.364 15.984C25.964 15.984 24.8303 14.8372 24.8303 13.4192C24.8298 11.9951 25.964 10.8374 27.364 10.8374Z" fill="url(#paint0_linear_21_257)"/>
<path d="M50.1386 21.1313V27.1283C50.1386 31.7768 46.1967 35.6896 41.7025 35.6896H28.2138C24.5191 35.6896 21.4621 38.8522 21.4621 42.5524V55.4121C21.4621 59.0713 24.6438 61.2243 28.2138 62.2738C32.4882 63.53 36.5876 63.7575 41.7025 62.2738C45.1019 61.2889 48.4542 59.3081 48.4542 55.4121V50.265H34.9661V48.5489H55.207C59.1314 48.5489 60.5948 45.8118 61.9598 41.7025C63.3697 37.4725 63.309 33.4043 61.9598 27.9782C60.9897 24.0707 59.1374 21.1307 55.207 21.1307L50.1386 21.1313ZM42.5518 53.6961C43.9523 53.6961 45.086 54.8428 45.086 56.262C45.086 57.685 43.9518 58.8427 42.5518 58.8427C41.1573 58.8427 40.0181 57.685 40.0181 56.262C40.0181 54.8428 41.1573 53.6961 42.5518 53.6961Z" fill="url(#paint1_linear_21_257)"/>
<path opacity="0.444" d="M53.2159 65.4046C53.2159 67.3421 45.1134 68.9133 35.1192 68.9133C25.1245 68.9133 17.022 67.3421 17.022 65.4046C17.022 63.4664 25.124 61.8953 35.1192 61.8953C45.1134 61.8953 53.2159 63.4659 53.2159 65.4046Z" fill="url(#paint2_radial_21_257)"/>
<defs>
<linearGradient id="paint0_linear_21_257" x1="5.65298" y1="8.30732" x2="36.7996" y2="34.869" gradientUnits="userSpaceOnUse">
<stop stop-color="#5A9FD4"/>
<stop offset="1" stop-color="#306998"/>
</linearGradient>
<linearGradient id="paint1_linear_21_257" x1="48.5181" y1="51.3802" x2="37.3485" y2="35.7166" gradientUnits="userSpaceOnUse">
<stop stop-color="#FFD43B"/>
<stop offset="1" stop-color="#FFE873"/>
</linearGradient>
<radialGradient id="paint2_radial_21_257" cx="0" cy="0" r="1" gradientUnits="userSpaceOnUse" gradientTransform="translate(35.0461 65.3041) rotate(-90) scale(3.51002 15.4295)">
<stop stop-color="#B8B8B8" stop-opacity="0.498"/>
<stop offset="1" stop-color="#7F7F7F" stop-opacity="0"/>
</radialGradient>
</defs>
</svg>
