<svg width="70" height="70" viewBox="0 0 70 70" fill="none" xmlns="http://www.w3.org/2000/svg">
<path d="M35 41.2344C38.4432 41.2344 41.2344 38.4432 41.2344 35C41.2344 31.5569 38.4432 28.7656 35 28.7656C31.5569 28.7656 28.7656 31.5569 28.7656 35C28.7656 38.4432 31.5569 41.2344 35 41.2344Z" fill="#61DAFB"/>
<path d="M58.6797 24.7188C57.4766 24.2812 56.2188 23.8438 54.9062 23.4609C55.2344 22.1484 55.5078 20.8359 55.7266 19.5781C56.875 12.3594 55.6172 7.27344 52.1172 5.30469C51.0781 4.70312 49.9297 4.42969 48.6172 4.42969C44.7891 4.42969 39.9219 7.27344 35 12.0312C30.0781 7.27344 25.2109 4.42969 21.3828 4.42969C20.0703 4.42969 18.9219 4.70312 17.8828 5.30469C14.3828 7.32812 13.125 12.4141 14.2734 19.5781C14.4922 20.8359 14.7656 22.1484 15.0938 23.4609C13.7812 23.8438 12.5234 24.2266 11.3203 24.7188C4.48438 27.3438 0.765625 30.9531 0.765625 35C0.765625 39.0469 4.53906 42.6563 11.3203 45.2813C12.5234 45.7188 13.7812 46.1562 15.0938 46.5391C14.7656 47.8516 14.4922 49.1641 14.2734 50.4219C13.125 57.6406 14.3828 62.7266 17.8828 64.6953C18.9219 65.2969 20.0703 65.5703 21.3828 65.5703C25.2656 65.5703 30.1328 62.7266 35 57.9688C39.9219 62.7266 44.7891 65.5703 48.6172 65.5703C49.9297 65.5703 51.0781 65.2969 52.1172 64.6953C55.6172 62.6719 56.875 57.5859 55.7266 50.4219C55.5078 49.1641 55.2344 47.8516 54.9062 46.5391C56.2188 46.1562 57.4766 45.7734 58.6797 45.2813C65.5156 42.6563 69.2344 39.0469 69.2344 35C69.2344 30.9531 65.5156 27.3438 58.6797 24.7188ZM50.5859 8.03906C52.8281 9.35156 53.5938 13.3984 52.6641 19.1406C52.5 20.2891 52.2266 21.4922 51.8984 22.75C49.0547 22.0938 46.0469 21.6562 42.875 21.3828C41.0156 18.7578 39.1016 16.4062 37.1875 14.2734C41.2344 10.2812 45.3359 7.54688 48.6719 7.54688C49.3828 7.54688 50.0391 7.71094 50.5859 8.03906ZM44.4609 40.4688C43.4766 42.2188 42.3281 43.9688 41.125 45.7188C39.1016 45.8828 37.0781 45.9375 35 45.9375C32.8672 45.9375 30.8437 45.8828 28.875 45.7188C27.6719 43.9688 26.5781 42.2188 25.5937 40.4688C24.5547 38.6641 23.5703 36.8047 22.6953 35C23.5703 33.1953 24.5547 31.3359 25.5937 29.5312C26.5781 27.7812 27.7266 26.0313 28.9297 24.2813C30.9531 24.1172 32.9766 24.0625 35.0547 24.0625C37.1875 24.0625 39.2109 24.1172 41.1797 24.2813C42.3828 26.0313 43.4766 27.7812 44.4609 29.5312C45.5 31.3359 46.4844 33.1953 47.3594 35C46.4297 36.8047 45.5 38.6094 44.4609 40.4688ZM49 38.6641C49.8203 40.5781 50.4766 42.4375 51.0781 44.2969C49.2188 44.7344 47.25 45.0625 45.1719 45.3359C45.8281 44.2969 46.5391 43.2031 47.1406 42.0547C47.7969 40.9062 48.3984 39.7578 49 38.6641ZM35 53.4844C33.6875 52.0625 32.4297 50.5312 31.2266 48.9453C32.4844 49 33.7422 49.0547 35 49.0547C36.2578 49.0547 37.5156 49 38.7734 48.9453C37.5703 50.5312 36.3125 52.0625 35 53.4844ZM24.8281 45.2813C22.75 45.0078 20.7812 44.6797 18.9219 44.2422C19.5234 42.4375 20.1797 40.5234 21 38.6094C21.6016 39.7031 22.2031 40.8516 22.8594 41.9453C23.5156 43.1484 24.1719 44.1875 24.8281 45.2813ZM21 31.3359C20.1797 29.4219 19.5234 27.5625 18.9219 25.7031C20.7812 25.2656 22.75 24.9375 24.8281 24.6641C24.1719 25.7031 23.4609 26.7969 22.8594 27.9453C22.2031 29.0938 21.6016 30.2422 21 31.3359ZM35 16.5156C36.3125 17.9375 37.5703 19.4688 38.7734 21.0547C37.5156 21 36.2578 20.9453 35 20.9453C33.7422 20.9453 32.4844 21 31.2266 21.0547C32.4297 19.4688 33.6875 17.9375 35 16.5156ZM47.1406 28L45.1719 24.7188C47.25 24.9922 49.2188 25.3203 51.0781 25.7578C50.4766 27.5625 49.8203 29.4766 49 31.3906C48.3984 30.2422 47.7969 29.0938 47.1406 28ZM17.3359 19.1406C16.4063 13.3984 17.1719 9.35156 19.4141 8.03906C19.9609 7.71094 20.6172 7.54688 21.3281 7.54688C24.6094 7.54688 28.7109 10.2266 32.8125 14.2734C30.8984 16.3516 28.9844 18.7578 27.125 21.3828C23.9531 21.6562 20.9453 22.1484 18.1016 22.75C17.7734 21.4922 17.5547 20.2891 17.3359 19.1406ZM3.82812 35C3.82812 32.4297 6.94531 29.6953 12.4141 27.6719C13.5078 27.2344 14.7109 26.8516 15.9141 26.5234C16.7891 29.2578 17.8828 32.1562 19.1953 35.0547C17.8828 37.9531 16.7344 40.7969 15.9141 43.5312C8.36719 41.3438 3.82812 38.0625 3.82812 35ZM19.4141 61.9609C17.1719 60.6484 16.4063 56.6016 17.3359 50.8594C17.5 49.7109 17.7734 48.5078 18.1016 47.25C20.9453 47.9062 23.9531 48.3438 27.125 48.6172C28.9844 51.2422 30.8984 53.5938 32.8125 55.7266C28.7656 59.7188 24.6641 62.4531 21.3281 62.4531C20.6172 62.4531 19.9609 62.2891 19.4141 61.9609ZM52.6641 50.8594C53.5938 56.6016 52.8281 60.6484 50.5859 61.9609C50.0391 62.2891 49.3828 62.4531 48.6719 62.4531C45.3906 62.4531 41.2891 59.7734 37.1875 55.7266C39.1016 53.6484 41.0156 51.2422 42.875 48.6172C46.0469 48.3438 49.0547 47.8516 51.8984 47.25C52.2266 48.5078 52.4453 49.7109 52.6641 50.8594ZM57.5859 42.3281C56.4922 42.7656 55.2891 43.1484 54.0859 43.4766C53.2109 40.7422 52.1172 37.8438 50.8047 34.9453C52.1172 32.0469 53.2656 29.2031 54.0859 26.4688C61.6328 28.6563 66.1719 31.9375 66.1719 35C66.1719 37.5703 63 40.3047 57.5859 42.3281Z" fill="#61DAFB"/>
</svg>
