<svg width="70" height="70" viewBox="0 0 70 70" fill="none" xmlns="http://www.w3.org/2000/svg">
<path d="M38.0078 54.2369C37.9756 53.8377 37.9564 53.5806 37.9564 53.5806C37.9564 53.5806 36.75 45.4382 35.3117 43.0074C35.0853 42.6207 35.3353 41.0419 35.9718 38.698C36.3437 39.3373 37.9078 42.0842 38.2239 42.9691C38.5782 43.9666 38.6504 44.2526 38.6504 44.2526C38.6504 44.2526 37.7918 39.8327 36.3842 37.2542C36.7263 36.1049 37.0917 34.9626 37.4801 33.8281C38.0122 34.7632 39.2919 37.0322 39.5735 37.8202C39.6293 37.9805 39.6785 38.1172 39.7212 38.2435C39.7338 38.1686 39.7485 38.0937 39.7617 38.0171C39.439 36.6477 38.8046 34.2656 37.9373 32.5035C39.8623 22.4804 46.4308 9.08416 53.1623 3.10681H9.24221C6.2962 3.10681 3.88885 5.51634 3.88885 8.46017V56.8969C3.88885 59.8407 6.29839 62.2503 9.24276 62.2503H38.1708C37.9516 59.5852 37.8974 56.9092 38.0084 54.2374" fill="#0B7FCC"/>
<path d="M35.9718 38.6979C36.3436 39.3367 37.9077 42.082 38.2233 42.9685C38.5782 43.966 38.6504 44.252 38.6504 44.252C38.6504 44.252 37.7918 39.8322 36.3841 37.2536C36.7265 36.1035 37.0919 34.9603 37.4801 33.8247C37.9651 34.6817 39.078 36.6515 39.4772 37.5829L39.5221 37.0573C39.1677 35.6923 38.629 33.904 37.9372 32.5029C39.7102 23.2766 45.4185 11.1912 51.5686 4.66809H9.24162C8.23627 4.66896 7.27234 5.06868 6.5614 5.77952C5.85046 6.49035 5.4506 7.45423 5.44958 8.45957V53.3635C15.0347 49.6825 26.594 46.3197 36.5422 46.4652C36.1747 45.0406 35.7541 43.7527 35.3117 43.0068C35.0853 42.6201 35.3352 41.0397 35.9718 38.6979Z" fill="url(#paint0_linear_21_288)"/>
<path d="M63.4101 1.52083C60.4023 -1.16214 56.758 -0.0831549 53.165 3.10622C52.6101 3.60265 52.0783 4.12438 51.5714 4.66974C45.4191 11.1918 39.713 23.2761 37.94 32.5029C38.6301 33.9046 39.1705 35.6923 39.5226 37.0573C39.6145 37.4073 39.6976 37.7365 39.7644 38.0165C39.9202 38.6766 40.0033 39.1081 40.0033 39.1081C40.0033 39.1081 39.9481 38.8986 39.7217 38.2429C39.6791 38.1172 39.6298 37.9782 39.574 37.8202C39.5505 37.7518 39.5166 37.6704 39.48 37.5829C39.0786 36.6515 37.9679 34.6817 37.4806 33.8275C37.0639 35.0579 36.6948 36.2118 36.3847 37.2536C37.7945 39.8322 38.6537 44.252 38.6537 44.252C38.6537 44.252 38.5787 43.966 38.226 42.9685C37.9099 42.082 36.3442 39.3372 35.9745 38.6979C35.338 41.0391 35.0858 42.6201 35.3144 43.0073C35.7569 43.7522 36.1752 45.0428 36.5449 46.4652C37.3783 49.6737 37.9591 53.5811 37.9591 53.5811C37.9591 53.5811 37.9761 53.8376 38.0105 54.2374C37.8995 56.9089 37.9538 59.5848 38.173 62.2497C38.4486 65.5911 38.9676 68.4638 39.6298 70L40.0826 69.7544C39.1087 66.7275 38.7133 62.7582 38.8861 58.1847C39.1486 51.1886 40.7575 42.7547 43.7292 33.9642C48.7555 20.6915 55.7266 10.045 62.1053 4.96067C56.2904 10.2118 48.4208 27.2097 46.0644 33.5048C43.4284 40.5546 41.5592 47.1679 40.431 53.5062C42.3724 47.5655 48.6598 45.0132 48.6598 45.0132C48.6598 45.0132 51.7426 41.2081 55.3465 35.7776C53.1863 36.2715 49.6426 37.1131 48.4569 37.6108C46.7069 38.3458 46.2328 38.5951 46.2328 38.5951C46.2328 38.5951 51.9044 35.1432 56.7711 33.5797C63.4615 23.0415 70.7503 8.06911 63.4107 1.52138" fill="#003956"/>
<defs>
<linearGradient id="paint0_linear_21_288" x1="32.0414" y1="5.66024" x2="32.0414" y2="50.6531" gradientUnits="userSpaceOnUse">
<stop stop-color="#95D7F4"/>
<stop offset="0.92" stop-color="#0F7FCC"/>
<stop offset="1" stop-color="#0F7FCC"/>
</linearGradient>
</defs>
</svg>
